<?xml version="1.0" encoding="utf-8"?>
<!-- Svg Vector Icons : http://www.onlinewebfonts.com/icon -->
<!DOCTYPE svg PUBLIC "-//W3C//DTD SVG 1.1//EN" "http://www.w3.org/Graphics/SVG/1.1/DTD/svg11.dtd">
<svg version="1.1" xmlns="http://www.w3.org/2000/svg" xmlns:xlink="http://www.w3.org/1999/xlink" x="0px" y="0px" viewBox="0 0 1000 1000" fill='white' enable-background="new 0 0 1000 1000" xml:space="preserve">
<metadata> Svg Vector Icons : http://www.onlinewebfonts.com/icon </metadata>
<g><g transform="translate(0.000000,511.000000) scale(0.100000,-0.100000)"><path d="M2200,1330.9v-1925h3850h3850v1925v1925H6050H2200V1330.9z M9200,1330.9v-1225H6050H2900v1225v1225h3150h3150V1330.9z"/><path d="M100-1294.1v-350h175h175v-328.1v-328.1h350h350v328.1v328.1h525h525v-350v-350h564.4h566.6l41.6-91.9c65.6-148.8,345.6-420,516.3-498.8c293.1-137.8,546.9-135.6,840,10.9c177.2,87.5,415.6,319.4,494.4,483.4l48.1,96.3H6050h780.9l41.6-91.9c65.6-148.8,345.6-420,516.3-498.8c293.1-137.8,546.9-135.6,840,10.9c177.2,87.5,415.6,319.4,494.4,483.4l48.1,96.3h564.4H9900v700v700h-350h-350v-350v-350h-214.4h-216.6l-41.6,94.1c-21.9,50.3-116,168.4-207.8,260.3c-339.1,347.8-724.1,426.6-1128.8,236.3c-175-80.9-417.8-308.4-503.1-472.5l-61.3-118.1h-778.7h-778.8l-41.6,94.1c-21.9,50.3-116,168.4-207.8,260.3c-339.1,347.8-724.1,426.6-1128.8,236.3c-175-80.9-417.8-308.4-503.1-472.5l-61.2-118.1h-212.2H2900v350v350H1500H100V-1294.1z M4496.9-1683.4c100.6-48.1,153.1-157.5,153.1-310.6s-52.5-262.5-153.1-310.6c-45.9-24.1-126.9-39.4-196.9-39.4c-236.2,0-350,115.9-350,356.6c0,234.1,107.2,343.4,339.1,343.4C4370-1644.1,4448.7-1659.4,4496.9-1683.4z M7996.9-1683.4c100.6-48.1,153.1-157.5,153.1-310.6c0-234.1-115.9-350-350-350c-236.2,0-350,115.9-350,356.6c0,234.1,107.2,343.4,339.1,343.4C7870-1644.1,7948.7-1659.4,7996.9-1683.4z"/></g></g>
</svg>